<svg width="311" height="80" viewBox="0 0 311 80" fill="none" xmlns="http://www.w3.org/2000/svg">
<path d="M278.707 40.0001C278.707 44.1313 277.364 47.3326 274.733 49.6563C272.099 51.9788 268.846 53.1163 265.024 53.1163C257.35 53.1163 252.919 47.2376 248.818 41.9713C245.232 37.3676 241.829 33.2876 237.656 33.2876C235.643 33.2876 234.093 33.9076 233.008 35.1463C231.873 36.4376 231.305 38.0388 231.305 40.0001C231.305 41.9613 231.873 43.5638 233.008 44.8538C234.093 46.0926 235.641 46.7126 237.656 46.7126C239.795 46.7126 241.731 45.6413 243.592 43.9763C244.872 45.5751 246.126 47.2688 247.644 49.0538C244.946 51.4301 241.766 53.1163 237.655 53.1163C233.832 53.1163 230.581 51.9788 227.946 49.6563C225.314 47.3338 223.971 44.1313 223.971 40.0001C223.971 35.8688 225.315 32.6676 227.946 30.3438C230.58 28.0213 233.832 26.8838 237.655 26.8838C245.329 26.8838 249.76 32.7626 253.861 38.0288C257.446 42.6326 260.85 46.7126 265.022 46.7126C267.036 46.7126 268.586 46.0926 269.671 44.8538C270.806 43.5626 271.374 41.9613 271.374 40.0001C271.374 38.0388 270.806 36.4363 269.671 35.1463C268.586 33.9076 267.038 33.2876 265.022 33.2876C262.884 33.2876 260.947 34.3588 259.086 36.0238C257.806 34.4251 256.553 32.7313 255.035 30.9463C257.732 28.5701 260.912 26.8838 265.024 26.8838C268.846 26.8838 272.098 28.0213 274.733 30.3438C277.365 32.6676 278.707 35.8688 278.707 40.0001ZM105.661 25.1813V27.6076H102.105L101.375 33.6488H105.661V52.3926H112.786V33.6488H120.378V27.6076H112.786V25.4901C112.786 22.8563 114.285 21.5651 117.229 21.5651C118.881 21.5651 120.325 21.9263 121.514 22.5976V16.5576C119.707 15.8851 117.694 15.5238 115.421 15.5238C110.721 15.5238 105.661 17.6926 105.661 25.1813ZM147.196 42.3226H129.744C130.517 45.7826 134.081 47.4351 138.47 47.4351C141.208 47.4351 143.686 46.9176 145.956 45.9388V51.5663C143.53 52.5988 140.484 53.1163 136.869 53.1163C132.738 53.1163 129.33 51.9788 126.593 49.6563C123.858 47.3338 122.514 44.1313 122.514 40.0001C122.514 30.7063 129.691 26.8838 135.269 26.8838C145.544 26.9363 148.849 34.9901 147.196 42.3226ZM139.761 34.1638C138.935 32.9776 137.541 32.3576 135.527 32.3576C132.376 32.3576 129.744 34.3713 129.691 37.6763H140.743C140.896 36.5401 140.587 35.3513 139.761 34.1638ZM175.846 42.3226H158.394C159.167 45.7826 162.731 47.4351 167.12 47.4351C169.857 47.4351 172.336 46.9176 174.606 45.9388V51.5663C172.18 52.5988 169.134 53.1163 165.518 53.1163C161.386 53.1163 157.979 51.9788 155.241 49.6563C152.506 47.3338 151.163 44.1313 151.163 40.0001C151.163 30.7063 158.34 26.8838 163.918 26.8838C174.194 26.9363 177.498 34.9901 175.846 42.3226ZM168.41 34.1638C167.584 32.9776 166.19 32.3576 164.176 32.3576C161.025 32.3576 158.392 34.3713 158.34 37.6763H169.391C169.545 36.5401 169.236 35.3513 168.41 34.1638ZM200.105 17.1076L207.23 16.2463V52.3926H201.367L200.931 48.7788C198.814 51.6688 195.819 53.1163 191.946 53.1163C188.176 53.1163 185.234 51.8251 183.064 49.2438C180.896 46.7126 179.811 43.6138 179.811 40.0001C179.811 36.3863 180.896 33.2876 183.064 30.7063C185.234 28.1751 188.176 26.8838 191.946 26.8838C195.354 26.8838 198.091 28.0213 200.105 30.2413V17.1076ZM200.105 37.0563C199.073 34.7338 196.594 32.9251 193.651 32.9251C189.674 32.9251 187.145 36.0238 187.145 39.9988C187.145 43.9738 189.674 47.0726 193.651 47.0726C196.595 47.0726 199.073 45.2651 200.105 42.9413V37.0563ZM310.4 40.0001C310.4 43.6138 309.315 46.7126 307.148 49.2938C304.978 51.8251 302.035 53.1163 298.265 53.1163C294.857 53.1163 292.12 51.9788 290.106 49.7588V62.8926L282.981 63.7538V27.6076H288.844L289.28 31.2213C291.398 28.3313 294.392 26.8838 298.265 26.8838C302.035 26.8838 304.978 28.1751 307.148 30.7563C309.316 33.2876 310.4 36.3863 310.4 40.0001ZM303.068 40.0001C303.068 36.0251 300.539 32.9263 296.561 32.9263C293.619 32.9263 291.14 34.7338 290.107 37.0576V42.9438C291.14 45.2663 293.619 47.0751 296.561 47.0751C300.539 47.0738 303.068 43.9751 303.068 40.0001ZM212.574 52.3926H219.699V16.2463L212.574 17.1076V52.3926Z" fill="#171717"/>
<path d="M80 40C80 62.0914 62.0914 80 40 80C32.2913 80 25.0919 77.8194 18.985 74.0414V50.0713C21.05 51.5788 23.57 52.4976 26.3175 52.4976C30.1638 52.4976 33.24 50.8551 35.8788 48.5463C35.0371 47.5341 34.2709 46.5506 33.548 45.6228C33.2478 45.2375 32.9551 44.8618 32.6675 44.4976C30.76 46.2076 28.71 47.3313 26.3175 47.3313C22.2775 47.3313 18.985 44.0438 18.985 40.0013C18.985 35.9588 22.2775 32.6713 26.3175 32.6713C31.0138 32.6713 34.39 37.0013 37.96 41.5888L37.9698 41.6013C41.9537 46.7133 46.4634 52.5001 53.685 52.5001C60.5763 52.5001 66.1813 46.8938 66.1813 40.0026C66.1813 33.1113 60.5763 27.5051 53.685 27.5051C49.8388 27.5051 46.7625 29.1476 44.1238 31.4563C44.9655 32.4685 45.7318 33.452 46.4547 34.3799C46.7548 34.7652 47.0475 35.1409 47.335 35.5051C49.2425 33.7951 51.2925 32.6713 53.685 32.6713C57.725 32.6713 61.0175 35.9588 61.0175 40.0013C61.0175 44.0438 57.725 47.3313 53.685 47.3313C48.985 47.3313 45.6088 43.0013 42.0388 38.4138L42.029 38.4013C38.0452 33.2894 33.5354 27.5026 26.3175 27.5026C19.4263 27.5026 13.8213 33.1088 13.8213 40.0001V70.2444C5.35526 62.9101 0 52.0804 0 40C0 17.9086 17.9086 0 40 0C62.0914 0 80 17.9086 80 40Z" fill="#171717"/>
</svg>
